<svg xmlns="http://www.w3.org/2000/svg" viewBox="0 0 120 90" fill="none" role="img" aria-label="RM Soluções Digitais">
  <defs>
    <linearGradient id="rmMarkGrad" x1="8" y1="8" x2="112" y2="82" gradientUnits="userSpaceOnUse">
      <stop stop-color="#2563EB"/>
      <stop offset="0.55" stop-color="#1D4ED8"/>
      <stop offset="1" stop-color="#06B6D4"/>
    </linearGradient>
    <linearGradient id="rmMarkShine" x1="20" y1="12" x2="100" y2="70" gradientUnits="userSpaceOnUse">
      <stop stop-color="#67E8F9" stop-opacity="0.95"/>
      <stop offset="1" stop-color="#2563EB" stop-opacity="0.2"/>
    </linearGradient>
  </defs>
  <!-- Outer shield / monogram frame -->
  <path
    d="M18 22C18 14.268 24.268 8 32 8H88C95.732 8 102 14.268 102 22V52.5C102 58.2 98.9 63.4 94 66.2L66.5 81.6C62.5 83.9 57.5 83.9 53.5 81.6L26 66.2C21.1 63.4 18 58.2 18 52.5V22Z"
    fill="url(#rmMarkGrad)"
    opacity="0.22"
  />
  <path
    d="M22 24C22 17.373 27.373 12 34 12H86C92.627 12 98 17.373 98 24V51.8C98 56.35 95.52 60.5 91.6 62.7L65.2 77.5C61.95 79.35 57.95 79.35 54.7 77.5L28.4 62.7C24.48 60.5 22 56.35 22 51.8V24Z"
    stroke="url(#rmMarkShine)"
    stroke-width="2.2"
    fill="none"
  />
  <!-- Letter R -->
  <path
    d="M34 28H52.5C58.3 28 62.5 32.1 62.5 37.6C62.5 41.9 59.9 45.4 56.2 46.6L64.8 62H56.2L48.4 47.2H41.2V62H34V28ZM41.2 34.2V41.4H51.8C54.2 41.4 55.8 39.7 55.8 37.7C55.8 35.7 54.2 34.2 51.8 34.2H41.2Z"
    fill="#F8FAFC"
  />
  <!-- Letter M -->
  <path
    d="M66 62V28H74.2L82.6 48.8L91 28H99.2V62H92.2V42.4L84.8 62H80.4L73 42.4V62H66Z"
    fill="url(#rmMarkShine)"
  />
  <!-- Accent bar -->
  <rect x="34" y="68" width="52" height="3.5" rx="1.75" fill="url(#rmMarkGrad)"/>
</svg>
